name N:\Shared_Data\HIL\Data Collection\CoPD-X-MoreData\processed\iteration012\grf0012.mot
datacolumns 19
datarows 70
range 2326.132805 2326.247799
endheader
time	ground_force1_vx	ground_force1_vy	ground_force1_vz	ground_force1_px	ground_force1_py	ground_force1_pz	ground_force2_vx	ground_force2_vy	ground_force2_vz	ground_force2_px	ground_force2_py	ground_force2_pz	ground_torque1_x	ground_torque1_y	ground_torque1_z	ground_torque2_x	ground_torque2_y	ground_torque2_z	
2326.132805	-0.7955451432	2.797516391	-0.5564190667	8.346368873	0	0.04955535349	44.27657043	764.8769099	-48.17173566	8.342177774	0	-0.03697106416	0	-0.05296306977	0	0	-11.44206382	0	
2326.134467	-1.09365822	3.808708838	-0.7360146615	8.342780248	0	0.05052826356	43.9650384	763.7301876	-48.01388176	8.342676322	0	-0.03704788874	0	-0.05652871199	0	0	-11.35193321	0	
2326.136131	-1.416633392	4.898656947	-0.9241876974	8.340286588	0	0.05127705169	43.65639705	762.5281704	-47.85205529	8.343181314	0	-0.03712462785	0	-0.05698296284	0	0	-11.25922864	0	
2326.1378	-1.754987286	6.034124482	-1.114163925	8.338431331	0	0.05188843527	43.35052452	761.2734068	-47.68673962	8.343692882	0	-0.03720127281	0	-0.05374557447	0	0	-11.16410729	0	
2326.139472	-2.098300253	7.178896187	-1.298899457	8.33698877	0	0.0524048282	43.04728256	759.9685035	-47.51841507	8.3442111	0	-0.03727781834	0	-0.04642090281	0	0	-11.06673111	0	
2326.14114	-2.435998837	8.296542611	-1.471635375	8.335839336	0	0.05284799415	42.74651668	758.6161184	-47.34755685	8.34473599	0	-0.03735426259	0	-0.03484155591	0	0	-10.96726608	0	
2326.142799	-2.758128826	9.353121781	-1.626413858	8.33492005	0	0.05322847289	42.44805631	757.2189538	-47.17463306	8.345267517	0	-0.03743060706	0	-0.01909290081	0	0	-10.86588151	0	
2326.144473	-3.056022656	10.31947898	-1.758489942	8.334202061	0	0.05354987306	42.15171519	755.7797502	-47.00010284	8.345805587	0	-0.03750685654	0	0.0004871531865	0	0	-10.76274935	0	
2326.146132	-3.322796098	11.17291902	-1.864598607	8.33367943	0	0.0538110211	41.85729177	754.3012796	-46.82441462	8.346350048	0	-0.03758301902	0	0.0233332666	0	0	-10.65804353	0	
2326.147806	-3.553645951	11.89815714	-1.943065038	8.33336309	0	0.05400709917	41.56456974	752.7863393	-46.64800453	8.346900689	0	-0.03765910551	0	0.04869864085	0	0	-10.55193934	0	
2326.149466	-3.745951316	12.48756453	-1.993768488	8.333277388	0	0.05413025821	41.27331863	751.2377453	-46.47129485	8.347457241	0	-0.03773512987	0	0.07571530983	0	0	-10.44461276	0	
2326.151131	-3.899202409	12.94080028	-2.017985039	8.333457901	0	0.05416994382	40.98329459	749.6583268	-46.29469274	8.348019379	0	-0.03781110863	0	0.1034612913	0	0	-10.33623992	0	
2326.152801	-4.014793481	13.26396584	-2.018142463	8.333949794	0	0.05411307148	40.6942411	748.0509198	-46.11858892	8.348586718	0	-0.03788706072	0	0.1310273924	0	0	-10.22699651	0	
2326.154472	-4.095721496	13.46843591	-1.997522723	8.334806218	0	0.05394414664	40.40588992	746.4183618	-45.94335664	8.349158822	0	-0.03796300722	0	0.157577502	0	0	-10.11705722	0	
2326.156132	-4.146231424	13.56951686	-1.959945763	8.336086375	0	0.05364541361	40.11796205	744.7634857	-45.76935074	8.349735201	0	-0.03803897104	0	0.182397698	0	0	-10.00659524	0	
2326.157807	-4.171444067	13.58506585	-1.90946341	8.337852951	0	0.05319711867	39.83016871	743.0891152	-45.59690678	8.350315316	0	-0.03811497658	0	0.2049311864	0	0	-9.895781702	0	
2326.15947	-4.176994605	13.53417693	-1.850085664	8.340168695	0	0.05257797963	39.54221248	741.3980592	-45.4263404	8.35089858	0	-0.03819104943	0	0.2247977605	0	0	-9.784785265	0	
2326.161136	-4.168701277	13.43600857	-1.785554409	8.343092034	0	0.05176595462	39.25378842	739.6931071	-45.25794679	8.351484364	0	-0.03826721591	0	0.2417979776	0	0	-9.673771596	0	
2326.162803	-4.152274799	13.30879568	-1.719172477	8.346671815	0	0.05073938769	38.96458526	737.9770243	-45.09200022	8.352072	0	-0.03834350272	0	0.2559034906	0	0	-9.562902941	0	
2326.164469	-4.133071429	13.16906102	-1.653689666	8.350941481	0	0.04947856479	38.6742867	736.2525476	-44.92875384	8.352660785	0	-0.03841993649	0	0.2672358762	0	0	-9.452337696	0	
2326.166135	-4.115886719	13.03101781	-1.591242201	8.355913269	0	0.04796763551	38.38257258	734.5223815	-44.76843945	8.353249984	0	-0.03849654337	0	0.2760368556	0	0	-9.342229997	0	
2326.167804	-4.104783325	12.90614073	-1.533338431	8.361573273	0	0.04619674672	38.08912026	732.7891938	-44.61126751	8.353838838	0	-0.03857334854	0	0.2826330119	0	0	-9.232729333	0	
2326.169468	-4.102945016	12.80287378	-1.480881361	8.367878325	0	0.04416411666	37.79360587	731.0556128	-44.45742721	8.354426567	0	-0.03865037581	0	0.2873980213	0	0	-9.123980181	0	
2326.171148	-4.112550066	12.72644404	-1.434217858	8.374755583	0	0.04187768908	37.49570563	729.3242231	-44.30708665	8.355012377	0	-0.03872764712	0	0.2907151182	0	0	-9.016121664	0	
2326.172802	-4.134660195	12.67875539	-1.393204787	8.382105328	0	0.03935599214	37.19509717	727.5975634	-44.16039311	8.355595464	0	-0.03880518209	0	0.2929420938	0	0	-8.909287234	0	
2326.174466	-4.169125577	12.65834748	-1.357283737	8.389806941	0	0.03662791569	36.89146077	725.8781232	-44.01747348	8.356175019	0	-0.03888299759	0	0.2943806973	0	0	-8.803604384	0	
2326.176137	-4.214511511	12.66041803	-1.325557989	8.397727343	0	0.03373130733	36.58448066	724.1683405	-43.87843468	8.356750238	0	-0.03896110727	0	0.2952519216	0	0	-8.699194394	0	
2326.177802	-4.268057298	12.67692035	-1.296867701	8.405730691	0	0.03071052628	36.2738462	722.4705996	-43.74336422	8.357320322	0	-0.03903952118	0	0.2956783487	0	0	-8.596172104	0	
2326.179466	-4.325681896	12.69675985	-1.269861532	8.41368787	0	0.02761330908	35.95925307	720.7872287	-43.61233083	8.357884487	0	-0.03911824531	0	0.2956744718	0	0	-8.494645724	0	
2326.18114	-4.382053263	12.70612076	-1.243064899	8.421484458	0	0.02448742361	35.64040434	719.1204989	-43.48538507	8.358441969	0	-0.03919728127	0	0.2951456508	0	0	-8.394716685	0	
2326.182806	-4.43073821	12.68895665	-1.21494646	8.429026303	0	0.0213775855	35.3170116	717.472622	-43.36256014	8.358992027	0	-0.03927662589	0	0.2938960382	0	0	-8.296479522	0	
2326.184469	-4.464446643	12.62767259	-1.18398509	8.436242382	0	0.01832299772	34.98879583	715.8457493	-43.24387256	8.359533954	0	-0.03935627093	0	0.2916453988	0	0	-8.200021802	0	
2326.186132	-4.475377921	12.50401446	-1.148739549	8.443085157	0	0.01535569974	34.65548838	714.2419709	-43.12932301	8.360067076	0	-0.0394362028	0	0.2880542229	0	0	-8.105424086	0	
2326.187799	-4.455667859	12.30015971	-1.107922093	8.449529019	0	0.01249973539	34.31683173	712.6633145	-43.01889718	8.360590759	0	-0.03951640232	0	0.2827559293	0	0	-8.012759931	0	
2326.189466	-4.397922991	11.99997733	-1.06047572	8.455567513	0	0.009771010481	33.97258022	711.1117446	-42.91256656	8.361104418	0	-0.03959684451	0	0.2753942946	0	0	-7.922095939	0	
2326.191139	-4.29581492	11.59039296	-1.005652609	8.461210077	0	0.007177630271	33.62250067	709.5891623	-42.81028938	8.361607514	0	-0.03967749848	0	0.265663586	0	0	-7.833491827	0	
2326.192802	-4.144693306	11.06276263	-0.9430889555	8.466478887	0	0.004720476925	33.26637292	708.0974048	-42.71201142	8.362099563	0	-0.03975832732	0	0.2533482718	0	0	-7.747000543	0	
2326.194465	-3.942162731	10.41412862	-0.8728691326	8.471406247	0	0.002393787022	32.90399025	706.6382451	-42.61766696	8.362580139	0	-0.03983928804	0	0.238358712	0	0	-7.662668414	0	
2326.196132	-3.688558726	9.648209024	-0.7955703372	8.47603289	0	0.0001854925557	32.5351597	705.2133922	-42.52717968	8.363048874	0	-0.03992033165	0	0.2207589748	0	0	-7.580535314	0	
2326.197799	-3.387253776	8.775964351	-0.7122780683	8.480407527	0	-0.001922938182	32.15970234	703.8244911	-42.44046352	8.363505464	0	-0.04000140317	0	0.2007829968	0	0	-7.500634865	0	
2326.199465	-3.044728091	7.815596018	-0.6245633705	8.484588127	0	-0.00395752986	31.77745336	702.4731229	-42.35742361	8.363949669	0	-0.04008244182	0	0.178835813	0	0	-7.422994659	0	
2326.201139	-2.670354882	6.791869218	-0.5344152742	8.48864589	0	-0.005954356744	31.38826215	701.1608053	-42.27795721	8.364381313	0	-0.04016338117	0	0.1554776552	0	0	-7.347636498	0	
2326.202802	-2.275878804	5.734722959	-0.4441266902	8.492674004	0	-0.007965007289	30.99199224	699.888993	-42.2019546	8.364800289	0	-0.04024414943	0	0.1313904703	0	0	-7.274576649	0	
2326.204468	-1.874610616	4.677235946	-0.3561394093	8.496806274	0	-0.01006822696	30.58852113	698.659078	-42.1293	8.365206555	0	-0.04032466978	0	0.1073288899	0	0	-7.203826114	0	
2326.206137	-1.480416904	3.65314827	-0.2728630222	8.501259113	0	-0.01239641405	30.17774014	697.4723906	-42.05987248	8.365600137	0	-0.04040486069	0	0.08406060227	0	0	-7.135390901	0	
2326.2078	-1.10663435	2.694255483	-0.196490573	8.506438104	0	-0.01520347056	29.75955402	696.3301999	-41.99354692	8.365981125	0	-0.04048463637	0	0.06230339316	0	0	-7.069272318	0	
2326.209467	0	0	0	0	0	0	29.33388064	695.2337144	-41.9301949	8.366349673	0	-0.04056390729	0	0	0	0	-7.005467251	0	
2326.211138	0	0	0	0	0	0	28.90065052	694.1840829	-41.86968561	8.366705997	0	-0.04064258062	0	0	0	0	-6.943968462	0	
2326.212799	0	0	0	0	0	0	28.4598063	693.1823954	-41.81188682	8.367050372	0	-0.0407205609	0	0	0	0	-6.884764875	0	
2326.214467	0	0	0	0	0	0	28.0113022	692.2296839	-41.75666577	8.367383131	0	-0.04079775057	0	0	0	0	-6.827841867	0	
2326.216133	0	0	0	0	0	0	27.55510336	691.326923	-41.70389007	8.367704655	0	-0.04087405065	0	0	0	0	-6.773181558	0	
2326.217799	0	0	0	0	0	0	27.09118521	690.4750314	-41.65342864	8.368015378	0	-0.04094936141	0	0	0	0	-6.720763091	0	
2326.219477	0	0	0	0	0	0	26.61953273	689.6748721	-41.60515258	8.368315775	0	-0.04102358304	0	0	0	0	-6.670562909	0	
2326.221138	0	0	0	0	0	0	26.14013974	688.9272537	-41.55893605	8.368606363	0	-0.04109661641	0	0	0	0	-6.622555037	0	
2326.222797	0	0	0	0	0	0	25.65300809	688.232931	-41.51465717	8.368887689	0	-0.04116836375	0	0	0	0	-6.576711339	0	
2326.224471	0	0	0	0	0	0	25.15814697	687.5926062	-41.47219881	8.369160333	0	-0.04123872939	0	0	0	0	-6.533001782	0	
2326.226134	0	0	0	0	0	0	24.65557203	687.0069292	-41.43144942	8.369424895	0	-0.04130762047	0	0	0	0	-6.491394683	0	
2326.227804	0	0	0	0	0	0	24.14530468	686.4764989	-41.39230383	8.369681994	0	-0.04137494769	0	0	0	0	-6.451856951	0	
2326.229469	0	0	0	0	0	0	23.62737132	686.0018636	-41.35466403	8.369932262	0	-0.04144062598	0	0	0	0	-6.414354313	0	
2326.231135	0	0	0	0	0	0	23.10180255	685.5835217	-41.3184398	8.370176334	0	-0.04150457521	0	0	0	0	-6.378851531	0	
2326.232801	0	0	0	0	0	0	22.56863252	685.2219227	-41.28354949	8.370414849	0	-0.04156672079	0	0	0	0	-6.345312599	0	
2326.234469	0	0	0	0	0	0	22.02789827	684.9174672	-41.24992058	8.370648437	0	-0.04162699437	0	0	0	0	-6.31370093	0	
2326.236142	0	0	0	0	0	0	21.47963907	684.670508	-41.21749033	8.37087772	0	-0.04168533435	0	0	0	0	-6.283979519	0	
2326.237804	0	0	0	0	0	0	20.92389592	684.4813502	-41.1862063	8.371103303	0	-0.04174168647	0	0	0	0	-6.256111095	0	
2326.239467	0	0	0	0	0	0	20.36071103	684.3502521	-41.15602686	8.37132577	0	-0.04179600426	0	0	0	0	-6.230058244	0	
2326.241132	0	0	0	0	0	0	19.79012744	684.2774248	-41.12692162	8.371545681	0	-0.04184824952	0	0	0	0	-6.205783512	0	
2326.242802	0	0	0	0	0	0	19.21218869	684.2630333	-41.09887188	8.371763564	0	-0.04189839263	0	0	0	0	-6.183249491	0	
2326.244471	0	0	0	0	0	0	18.62693854	684.3071958	-41.07187096	8.371979913	0	-0.04194641294	0	0	0	0	-6.162418874	0	
2326.246135	0	0	0	0	0	0	18.03442089	684.4099849	-41.0459245	8.372195188	0	-0.04199229895	0	0	0	0	-6.14325449	0	
2326.247799	0	0	0	0	0	0	17.43467964	684.5714268	-41.02105072	8.372409804	0	-0.0420360485	0	0	0	0	-6.125719313	0	
